<svg version="1.0" xmlns="http://www.w3.org/2000/svg" width="1706.667" height="1608" viewBox="0 0 1280 1206"><g fill="#e91e63"><path d="M582.8 46C554.6 71 441 171.6 330.5 269.5 219.9 367.3 114 461.2 95 478c-19 16.8-46 40.7-60 53-14 12.4-27.6 24.5-30.2 27L0 562.5l33 37c18.1 20.3 33.6 36.9 34.3 36.9.8-.1 60.3-52.1 132.3-115.6C577.4 187.6 638.4 134 639.1 134.2c.4.2 47 41.3 103.6 91.4 56.5 50.1 184.2 163.1 283.6 251.2C1125.7 564.9 1207.5 637 1208 637s1.2-.5 1.5-1c.5-.8 1.1-.7 2.1.1 1.9 1.5-1 4.5 33.9-35.1 15.3-17.3 29.3-33.1 31.2-35.1l3.4-3.6-83.8-73.9c-46.1-40.7-154.4-136.3-240.8-212.4-86.3-76.2-191.9-169.3-234.7-207L643.2.5h-9L582.8 46z"/><path d="M570.7 275.9c-36.4 32.2-137 121.3-223.5 197.9L190 613.1l.2 287.2.3 287.2 2.2 4.1c1.2 2.3 4.1 5.8 6.4 7.7 8.3 7.2-2.4 6.7 156.1 6.7H498l.2-127.3c.3-126.6.3-127.2 2.4-131.7 2.6-5.8 7.6-10.8 13.4-13.4 4.5-2.1 5.2-2.1 122.4-2.4 130.4-.3 124.8-.5 132.2 6 5.2 4.6 8.1 9.7 9.3 16.3.8 4 1.1 45.4 1.1 129.2V1206l148.4-.2 148.5-.3 3-2.9c1.7-1.6 4.5-6.3 6.3-10.5l3.3-7.6.2-286 .2-286-224-197.5c-127-112-224.9-197.6-226-197.6-1.3-.1-24.7 20-68.2 58.5z"/></g></svg>